<?xml version="1.0" encoding="UTF-8"?>
<svg width="100px" height="100px" viewBox="0 0 100 100" version="1.1" xmlns="http://www.w3.org/2000/svg" xmlns:xlink="http://www.w3.org/1999/xlink">
    <title>github头像-社区开发者</title>
    <defs>
        <linearGradient x1="50.0000833%" y1="8.33333333%" x2="50.0000833%" y2="91.6685625%" id="linearGradient-1">
            <stop stop-color="#07B3FF" offset="0%"></stop>
            <stop stop-color="#007EE8" offset="100%"></stop>
        </linearGradient>
        <linearGradient x1="50.0000833%" y1="8.33333333%" x2="50.0000833%" y2="91.6685625%" id="linearGradient-2">
            <stop stop-color="#07B3FF" offset="0%"></stop>
            <stop stop-color="#007EE8" offset="100%"></stop>
        </linearGradient>
    </defs>
    <g id="github头像-社区开发者" stroke="none" stroke-width="1" fill="none" fill-rule="evenodd">
        <path d="M50,2 C76.509668,2 98,23.490332 98,50 C98,76.509668 76.509668,98 50,98 C23.490332,98 2,76.509668 2,50 C2,23.490332 23.490332,2 50,2 Z M50,8 C26.8040405,8 8,26.8040405 8,50 C8,73.1959595 26.8040405,92 50,92 C73.1959595,92 92,73.1959595 92,50 C92,26.8040405 73.1959595,8 50,8 Z" id="形状结合" fill="url(#linearGradient-1)"></path>
        <path d="M44.5,28 C45.3284271,28 46,28.6715729 46,29.5 L46,31.6211729 C46,32.1655055 45.7051113,32.6671197 45.2294849,32.9318413 L36.5410301,37.7676158 C35.5897774,38.297059 35,39.3002874 35,40.3889526 L35,59.4999422 C35,60.3283693 35.6715729,60.9999422 36.5,60.9999422 L44.5,60.9999422 C45.3284271,60.9999422 46,61.6715151 46,62.4999422 L46,68.4999264 C46,69.3283536 45.3284271,69.9999264 44.5,69.9999264 L36.9999979,69.9999264 C35.7409699,69.9999264 34.5554176,70.592702 33.7999999,71.5999238 L28.6999992,78.3999127 C28.2029424,79.062654 27.2627403,79.1969678 26.599999,78.699911 C26.2222908,78.4166294 26,77.9720472 26,77.4999117 L26,32.5 C26,30.0147186 28.0147186,28 30.5,28 L44.5,28 Z M69.5,28 C71.9852814,28 74,30.0147186 74,32.5 L74,65.4999264 C74,67.9852078 71.9852814,69.9999264 69.5,69.9999264 L55.5,69.9999264 C54.6715729,69.9999264 54,69.3283536 54,68.4999264 L54,62.4999422 C54,61.6715151 54.6715729,60.9999422 55.5,60.9999422 L63.5,60.9999422 C64.3284271,60.9999422 65,60.3283693 65,59.4999422 L65,40.3891628 C65,39.3003858 64.4101025,38.2970726 63.4586969,37.7676741 L54.7706515,32.9333122 C54.2949487,32.6686129 54,32.1669563 54,31.6225678 L54,29.5 C54,28.6715729 54.6715729,28 55.5,28 L69.5,28 Z M54.738891,44 C60.3382649,48.7674933 57.0287856,54.0640354 57.0287856,54.0640354 C55.3247112,57.3398533 51.6310407,59.3098149 48.6847795,60 C45.2609009,59.2306438 42.4352358,56.9323553 41,53.8805449 C43.3633009,54.5534987 49.8311568,56.0083828 53.9152153,53.1912912 C56.5640381,51.3638375 56.2227465,48.4373035 56.2227465,48.4373035 C56.1788934,46.2112004 54.738891,44 54.738891,44 Z M49.5582825,38 C47.8494092,40.165259 46.9604989,43.8847536 47.0289834,46.1344516 L47.0283036,46.2324498 C47.0322401,46.7816334 47.1554691,49.4892488 49.1700495,50.5183239 C49.1700495,50.5183239 51.1894167,51.3924075 52.565585,48.5660184 C52.565585,48.5660184 53.5114115,46.9709551 53.1264175,43.3660564 C53.1264175,43.3660564 53.4947531,43.4300817 53.536399,43.4876116 C53.578045,43.5446775 54.3498838,46.262966 53.8075606,48.5520999 C53.8075606,48.5520999 53.3082716,51.2420874 50.8534725,51.8572863 C48.3995988,52.4724852 46.4871229,50.9841307 45.1886938,49.5820709 C44.1841003,48.4973537 42.6737394,45.5132213 42,41.9755955 C43.8254821,39.7412078 46.5158124,38.2445021 49.5582825,38 Z M54.7143991,38 C56.3749578,38.6921334 57.8390477,39.7500046 59,41.070158 C58.4001746,41.121643 57.650517,41.1595282 56.8661299,41.1337857 C56.8661299,41.1337857 53.9746641,41.2688124 52.3532999,42.0775156 C52.3532999,42.0775156 51.1442226,42.6166511 49.9356415,43.5307529 C49.9356415,43.5307529 49.6791405,43.6589797 49.6915439,44.1301161 C49.7024588,44.5997954 49.4454617,45.8519497 48.5891353,46.585854 C48.5891353,46.585854 47.9778988,46.9001068 48.2835171,47.3498721 C48.2835171,47.3498721 48.6963001,47.9492353 49.2777685,47.3197582 C49.2777685,47.3197582 50.7770839,45.7771508 50.8688686,43.291299 C50.8688686,43.291299 51.2990759,42.9238794 51.9872019,42.7856722 L52.0923337,42.7667348 L52.0927263,42.779373 C52.0931946,42.796079 52.0939656,42.8290556 52.0943765,42.8765623 L52.0944141,43.0072373 C52.0881417,43.8612685 51.9479673,46.7816189 50.379681,48.368401 C50.379681,48.368401 50.3756894,48.3727482 50.3680253,48.3807211 L50.3343348,48.4147963 C50.0552254,48.6903602 48.5655335,50.0144642 48.0538073,47.439728 C48.0538073,47.439728 47.365174,44.728508 50.915009,41.508752 C50.915009,41.508752 50.9188375,41.5049285 50.9262784,41.4975158 L50.9592216,41.4647442 C51.014851,41.40947 51.120818,41.3044668 51.264781,41.1631028 L51.3971952,41.0333408 C51.4207192,41.0103336 51.4449466,40.9866623 51.4698415,40.9623659 L51.6120353,40.8238746 C52.4281303,40.0306512 53.7860838,38.7385865 54.7143991,38 Z" id="形状结合" fill="url(#linearGradient-2)"></path>
    </g>
</svg>