<?xml version="1.0" encoding="UTF-8"?>
<svg width="100px" height="100px" viewBox="0 0 100 100" version="1.1" xmlns="http://www.w3.org/2000/svg" xmlns:xlink="http://www.w3.org/1999/xlink">
    <title>github头像-SIG兴趣小组</title>
    <defs>
        <linearGradient x1="50%" y1="0%" x2="50%" y2="100%" id="linearGradient-1">
            <stop stop-color="#07B3FF" offset="0%"></stop>
            <stop stop-color="#0081E9" offset="100%"></stop>
        </linearGradient>
    </defs>
    <g id="github头像-SIG兴趣小组" stroke="none" stroke-width="1" fill="none" fill-rule="evenodd">
        <path d="M69.049969,5 C83.9616572,5 96.049969,17.0883118 96.049969,32 C96.049969,32.8330692 96.0114132,33.6655804 95.9344562,34.4948635 L95.8695407,35.1161788 L90.2656667,83.3462421 C90.0044801,85.5941598 87.4575831,86.7350773 85.6151955,85.4921911 L85.4749134,85.3918612 L77.5835606,79.418 L75.8505265,94.3430543 C75.6045343,96.4602002 73.303119,97.6345707 71.4576959,96.6435456 L71.30502,96.5559215 L62.2188598,90.9978122 L29.8065606,90.9968122 C15.1916149,90.9968122 3.28879347,79.3848281 2.82084884,64.8836127 L2.81017781,64.4433065 L2.80656058,63.9968122 C2.80656058,63.0919867 2.85204438,62.1878765 2.94279689,61.2879008 L3.01934581,60.6137478 L8.32278831,18.6209161 C8.50460338,17.1812985 9.68733315,16.0873725 11.1189513,16.0021618 L11.2991455,15.9968122 L22.6485606,15.996 L23.7393432,7.61306718 C23.9259719,6.1781675 25.1068743,5.09007249 26.5345899,5.00532073 L26.7142857,5 L69.049969,5 Z M21.8675606,21.996 L13.9448598,21.9968122 L8.9720602,61.3655399 C8.9059257,61.889195 8.85957273,62.4150331 8.83307188,62.9419321 L8.81319102,63.4691432 L8.80656058,63.9968122 C8.80656058,75.4776406 18.0196003,84.8066483 29.4557862,84.9939417 L29.8065606,84.9968122 L63.0627651,84.9968122 C63.546197,84.9968122 64.0214135,85.1136245 64.4483963,85.3359791 L64.6283192,85.4377029 L70.4328598,88.9878122 L71.7085606,78 L31.6618417,78 C23.5886607,78 17.0051051,71.6221558 16.6748376,63.6301304 L16.6650595,63.3138282 L16.6618417,63 C16.6618417,62.5148137 16.6853823,62.0300086 16.7323528,61.5472925 L16.7871291,61.0653359 L21.0878417,27.999 L27.1378417,27.999 L22.7370142,61.8392015 C22.7036392,62.0958062 22.6813542,62.3536711 22.6702059,62.6120765 L22.6618417,63 C22.6618417,67.8818027 26.5486554,71.8557914 31.3964795,71.9961629 L31.6618417,72 L72.4055606,72 L76.9252851,33.106336 C76.9400633,32.9791458 76.9523848,32.8517062 76.9622452,32.7240883 L76.9844394,32.3407712 L76.991843,31.9568122 C76.991843,26.4560561 72.5325991,21.9968122 67.031843,21.9968122 L27.9175606,21.996 L27.9178417,21.999 L21.8678417,21.999 L21.8675606,21.996 Z M69.049969,11 L29.349,11 L28.6985606,15.996 L67.031843,15.9968122 C75.7401093,15.9968122 82.8194192,22.9712032 82.9887409,31.6389535 L82.991843,31.9568122 C82.991843,32.4184714 82.9718121,32.8798407 82.9318255,33.3396195 L82.8851899,33.7988201 L78.3865606,72.508 L78.5294288,72.6081388 L84.911,77.439 L89.9096359,34.4236946 C89.9563744,34.0214366 89.9914577,33.6179951 90.0148563,33.213877 L90.0411871,32.6072558 L90.049969,32 C90.049969,20.5191716 80.8369292,11.1901639 69.4007433,11.0028704 L69.049969,11 Z M57.8981517,40.0909091 C67.2304414,48.108966 61.7146427,57.0167868 61.7146427,57.0167868 C58.8745187,62.5261169 52.7184012,65.8392341 47.8079659,67 C42.1015015,65.7060828 37.3920596,61.8407794 35,56.7081891 C38.9388348,57.839975 49.7185947,60.2868256 56.5253589,55.5489897 C60.9400634,52.4755448 60.3712442,47.5536468 60.3712442,47.5536468 C60.2981557,43.8097461 57.8981517,40.0909091 57.8981517,40.0909091 Z M49.2638042,30 C46.415682,33.6415719 44.9341648,39.8970855 45.0483056,43.6806686 L45.0478437,43.6997157 C45.0477177,43.7060035 45.0475812,43.7138175 45.0474553,43.7231115 L45.0471727,43.8454837 C45.0537335,44.7691107 45.2591151,49.3228275 48.6167491,51.0535448 C48.6167491,51.0535448 51.9823612,52.5235944 54.275975,47.7701219 C54.275975,47.7701219 55.8523524,45.0875154 55.2106959,39.0247313 C55.2106959,39.0247313 55.8245885,39.1324101 55.8939984,39.2291649 C55.9634084,39.3251395 57.2498064,43.8968065 56.3459344,47.7467135 C56.3459344,47.7467135 55.513786,52.2707833 51.4224542,53.305436 C47.3326647,54.3400888 44.1452049,51.836947 41.9811564,49.4789375 C40.3068338,47.6546403 37.7895657,42.6358722 36.6666667,36.6862288 C39.7091368,32.928395 44.1930206,30.4112081 49.2638042,30 Z M57.8573318,30 C60.6249297,31.1640425 63.0650795,32.9431896 65,35.1634475 C64.0002911,35.250036 62.7508616,35.313752 61.4435499,35.2704578 C61.4435499,35.2704578 56.6244402,35.4975482 53.9221665,36.85764 C53.9221665,36.85764 51.9070377,37.7643678 49.8927359,39.3017208 L49.8872953,39.3047032 L49.8484411,39.3304878 C49.7396622,39.4110509 49.4693686,39.6758482 49.4859064,40.3097408 C49.504098,41.099656 49.0757694,43.2055518 47.6485588,44.4398453 C47.6485588,44.4398453 46.6298314,44.9683615 47.1391951,45.7247849 C47.1391951,45.7247849 47.8271669,46.7328049 48.7962809,45.6741388 C48.7962809,45.6741388 51.2951398,43.0797535 51.4481143,38.8990029 C51.4481143,38.8990029 52.1651265,38.2810699 53.3120032,38.0486305 L53.4872228,38.0167812 L53.4878772,38.0380365 C53.4886577,38.0661328 53.4899426,38.1215936 53.4906275,38.2014911 L53.4906901,38.4212627 C53.4802362,39.857588 53.2466121,44.7690863 50.6328016,47.4377654 L50.6225381,47.448806 C50.6191506,47.4524094 50.6149415,47.4568562 50.609936,47.4620886 L50.5440652,47.5288398 C50.0471164,48.0191179 47.6014832,50.16685 46.7563454,45.8759062 C46.7563454,45.8759062 45.6086234,41.316127 51.525015,35.9010829 L51.5987027,35.8270698 C51.6914183,35.7341087 51.86803,35.5575123 52.1079684,35.3197637 L52.3286587,35.1015276 C52.3678653,35.0628337 52.4082443,35.0230229 52.4497358,34.9821608 L52.6867254,34.7492436 C54.0468839,33.4151861 56.3101396,31.2421682 57.8573318,30 Z" id="形状结合" fill="url(#linearGradient-1)" fill-rule="nonzero"></path>
    </g>
</svg>